<svg width="350" height="85" viewBox="0 0 350 85" fill="none" xmlns="http://www.w3.org/2000/svg">
<path d="M97.4312 30.796C97.9592 31.156 98.6312 31.468 99.4472 31.732C100.287 31.996 101.223 32.128 102.255 32.128C103.551 32.128 104.583 31.9 105.351 31.444C106.143 30.964 106.743 30.268 107.151 29.356C107.559 28.444 107.823 27.328 107.943 26.008C108.063 24.664 108.123 23.14 108.123 21.436V8.44H110.643V21.436C110.643 23.38 110.547 25.156 110.355 26.764C110.187 28.348 109.815 29.704 109.239 30.832C108.663 31.96 107.823 32.836 106.719 33.46C105.615 34.084 104.127 34.396 102.255 34.396C100.095 34.396 98.2472 33.868 96.7112 32.812L97.4312 30.796ZM120.709 34.36C119.821 34.36 118.993 34.216 118.225 33.928C117.481 33.616 116.821 33.196 116.245 32.668C115.693 32.14 115.261 31.528 114.949 30.832C114.637 30.112 114.481 29.344 114.481 28.528C114.481 27.712 114.673 26.956 115.057 26.26C115.441 25.564 115.981 24.964 116.677 24.46C117.373 23.956 118.201 23.572 119.161 23.308C120.121 23.02 121.177 22.876 122.329 22.876C123.289 22.876 124.261 22.96 125.245 23.128C126.229 23.296 127.105 23.536 127.873 23.848V22.156C127.873 20.5 127.405 19.192 126.469 18.232C125.533 17.248 124.237 16.756 122.581 16.756C121.621 16.756 120.637 16.948 119.629 17.332C118.621 17.716 117.601 18.268 116.569 18.988L115.705 17.368C118.129 15.736 120.481 14.92 122.761 14.92C125.113 14.92 126.961 15.58 128.305 16.9C129.649 18.22 130.321 20.044 130.321 22.372V30.832C130.321 31.504 130.621 31.84 131.221 31.84V34C130.813 34.072 130.501 34.108 130.285 34.108C129.661 34.108 129.169 33.952 128.809 33.64C128.473 33.328 128.293 32.896 128.269 32.344L128.197 30.868C127.333 31.996 126.241 32.86 124.921 33.46C123.625 34.06 122.221 34.36 120.709 34.36ZM121.285 32.488C122.557 32.488 123.721 32.248 124.777 31.768C125.857 31.288 126.673 30.652 127.225 29.86C127.441 29.644 127.597 29.416 127.693 29.176C127.813 28.912 127.873 28.672 127.873 28.456V25.396C127.057 25.084 126.205 24.844 125.317 24.676C124.453 24.508 123.565 24.424 122.653 24.424C120.925 24.424 119.521 24.784 118.441 25.504C117.361 26.224 116.821 27.172 116.821 28.348C116.821 28.924 116.929 29.464 117.145 29.968C117.385 30.472 117.697 30.916 118.081 31.3C118.489 31.66 118.969 31.948 119.521 32.164C120.073 32.38 120.661 32.488 121.285 32.488ZM143.314 34.36C142.018 34.36 140.818 34.096 139.714 33.568C138.61 33.016 137.662 32.296 136.87 31.408C136.078 30.52 135.454 29.5 134.998 28.348C134.566 27.172 134.35 25.948 134.35 24.676C134.35 23.356 134.566 22.108 134.998 20.932C135.43 19.732 136.018 18.688 136.762 17.8C137.53 16.912 138.43 16.216 139.462 15.712C140.518 15.184 141.67 14.92 142.918 14.92C144.502 14.92 145.906 15.34 147.13 16.18C148.354 16.996 149.314 17.992 150.01 19.168V7.72H152.458V30.832C152.458 31.504 152.746 31.84 153.322 31.84V34C152.962 34.072 152.674 34.108 152.458 34.108C151.882 34.108 151.378 33.928 150.946 33.568C150.514 33.184 150.298 32.728 150.298 32.2V30.364C149.554 31.588 148.546 32.56 147.274 33.28C146.002 34 144.682 34.36 143.314 34.36ZM143.854 32.2C144.454 32.2 145.09 32.08 145.762 31.84C146.458 31.6 147.106 31.276 147.706 30.868C148.306 30.436 148.81 29.944 149.218 29.392C149.65 28.816 149.914 28.204 150.01 27.556V21.76C149.77 21.112 149.422 20.512 148.966 19.96C148.51 19.384 147.982 18.88 147.382 18.448C146.806 18.016 146.182 17.68 145.51 17.44C144.838 17.2 144.178 17.08 143.53 17.08C142.522 17.08 141.61 17.296 140.794 17.728C139.978 18.16 139.27 18.736 138.67 19.456C138.094 20.152 137.65 20.956 137.338 21.868C137.026 22.78 136.87 23.716 136.87 24.676C136.87 25.684 137.05 26.644 137.41 27.556C137.77 28.468 138.262 29.272 138.886 29.968C139.51 30.64 140.242 31.18 141.082 31.588C141.946 31.996 142.87 32.2 143.854 32.2ZM166.105 34.36C164.737 34.36 163.477 34.108 162.325 33.604C161.197 33.076 160.213 32.368 159.373 31.48C158.533 30.568 157.873 29.524 157.393 28.348C156.937 27.172 156.709 25.912 156.709 24.568C156.709 23.248 156.937 22.012 157.393 20.86C157.873 19.684 158.521 18.664 159.337 17.8C160.177 16.912 161.173 16.216 162.325 15.712C163.477 15.184 164.725 14.92 166.069 14.92C167.437 14.92 168.685 15.184 169.813 15.712C170.965 16.216 171.949 16.912 172.765 17.8C173.581 18.688 174.217 19.708 174.673 20.86C175.129 22.012 175.357 23.236 175.357 24.532C175.357 24.724 175.357 24.916 175.357 25.108C175.357 25.3 175.345 25.432 175.321 25.504H159.265C159.337 26.512 159.565 27.448 159.949 28.312C160.357 29.152 160.873 29.884 161.497 30.508C162.121 31.132 162.829 31.624 163.621 31.984C164.437 32.32 165.301 32.488 166.213 32.488C166.813 32.488 167.413 32.404 168.013 32.236C168.613 32.068 169.165 31.84 169.669 31.552C170.173 31.264 170.629 30.916 171.037 30.508C171.445 30.076 171.757 29.608 171.973 29.104L174.097 29.68C173.809 30.376 173.401 31.012 172.873 31.588C172.345 32.14 171.733 32.632 171.037 33.064C170.341 33.472 169.573 33.784 168.733 34C167.893 34.24 167.017 34.36 166.105 34.36ZM173.017 23.632C172.945 22.624 172.705 21.712 172.297 20.896C171.913 20.056 171.409 19.336 170.785 18.736C170.185 18.136 169.477 17.668 168.661 17.332C167.869 16.996 167.017 16.828 166.105 16.828C165.193 16.828 164.329 16.996 163.513 17.332C162.697 17.668 161.977 18.136 161.353 18.736C160.753 19.336 160.261 20.056 159.877 20.896C159.517 21.736 159.301 22.648 159.229 23.632H173.017ZM208.037 27.412C208.037 28.372 207.845 29.26 207.461 30.076C207.077 30.868 206.561 31.564 205.913 32.164C205.265 32.74 204.509 33.196 203.645 33.532C202.781 33.844 201.857 34 200.873 34H188.813V8.44H201.125C202.013 8.44 202.817 8.632 203.537 9.016C204.257 9.4 204.869 9.904 205.373 10.528C205.877 11.128 206.261 11.824 206.525 12.616C206.813 13.384 206.957 14.164 206.957 14.956C206.957 16.252 206.633 17.44 205.985 18.52C205.337 19.576 204.437 20.368 203.285 20.896C204.749 21.328 205.901 22.132 206.741 23.308C207.605 24.484 208.037 25.852 208.037 27.412ZM205.517 26.98C205.517 26.356 205.409 25.756 205.193 25.18C204.977 24.58 204.665 24.064 204.257 23.632C203.873 23.176 203.405 22.816 202.853 22.552C202.325 22.264 201.749 22.12 201.125 22.12H191.333V31.804H200.873C201.521 31.804 202.121 31.672 202.673 31.408C203.249 31.144 203.741 30.796 204.149 30.364C204.581 29.908 204.917 29.392 205.157 28.816C205.397 28.216 205.517 27.604 205.517 26.98ZM191.333 10.636V20.068H200.117C200.741 20.068 201.317 19.936 201.845 19.672C202.397 19.408 202.865 19.06 203.249 18.628C203.633 18.196 203.933 17.704 204.149 17.152C204.365 16.576 204.473 15.976 204.473 15.352C204.473 14.704 204.365 14.092 204.149 13.516C203.957 12.94 203.669 12.448 203.285 12.04C202.925 11.608 202.493 11.272 201.989 11.032C201.485 10.768 200.933 10.636 200.333 10.636H191.333ZM220.386 34.36C219.018 34.36 217.758 34.108 216.606 33.604C215.478 33.076 214.494 32.368 213.654 31.48C212.814 30.568 212.154 29.524 211.674 28.348C211.218 27.172 210.99 25.912 210.99 24.568C210.99 23.248 211.218 22.012 211.674 20.86C212.154 19.684 212.802 18.664 213.618 17.8C214.458 16.912 215.454 16.216 216.606 15.712C217.758 15.184 219.006 14.92 220.35 14.92C221.718 14.92 222.966 15.184 224.094 15.712C225.246 16.216 226.23 16.912 227.046 17.8C227.862 18.688 228.498 19.708 228.954 20.86C229.41 22.012 229.638 23.236 229.638 24.532C229.638 24.724 229.638 24.916 229.638 25.108C229.638 25.3 229.626 25.432 229.602 25.504H213.546C213.618 26.512 213.846 27.448 214.23 28.312C214.638 29.152 215.154 29.884 215.778 30.508C216.402 31.132 217.11 31.624 217.902 31.984C218.718 32.32 219.582 32.488 220.494 32.488C221.094 32.488 221.694 32.404 222.294 32.236C222.894 32.068 223.446 31.84 223.95 31.552C224.454 31.264 224.91 30.916 225.318 30.508C225.726 30.076 226.038 29.608 226.254 29.104L228.378 29.68C228.09 30.376 227.682 31.012 227.154 31.588C226.626 32.14 226.014 32.632 225.318 33.064C224.622 33.472 223.854 33.784 223.014 34C222.174 34.24 221.298 34.36 220.386 34.36ZM227.298 23.632C227.226 22.624 226.986 21.712 226.578 20.896C226.194 20.056 225.69 19.336 225.066 18.736C224.466 18.136 223.758 17.668 222.942 17.332C222.15 16.996 221.298 16.828 220.386 16.828C219.474 16.828 218.61 16.996 217.794 17.332C216.978 17.668 216.258 18.136 215.634 18.736C215.034 19.336 214.542 20.056 214.158 20.896C213.798 21.736 213.582 22.648 213.51 23.632H227.298ZM238.131 34.36C237.243 34.36 236.415 34.216 235.647 33.928C234.903 33.616 234.243 33.196 233.667 32.668C233.115 32.14 232.683 31.528 232.371 30.832C232.059 30.112 231.903 29.344 231.903 28.528C231.903 27.712 232.095 26.956 232.479 26.26C232.863 25.564 233.403 24.964 234.099 24.46C234.795 23.956 235.623 23.572 236.583 23.308C237.543 23.02 238.599 22.876 239.751 22.876C240.711 22.876 241.683 22.96 242.667 23.128C243.651 23.296 244.527 23.536 245.295 23.848V22.156C245.295 20.5 244.827 19.192 243.891 18.232C242.955 17.248 241.659 16.756 240.003 16.756C239.043 16.756 238.059 16.948 237.051 17.332C236.043 17.716 235.023 18.268 233.991 18.988L233.127 17.368C235.551 15.736 237.903 14.92 240.183 14.92C242.535 14.92 244.383 15.58 245.727 16.9C247.071 18.22 247.743 20.044 247.743 22.372V30.832C247.743 31.504 248.043 31.84 248.643 31.84V34C248.235 34.072 247.923 34.108 247.707 34.108C247.083 34.108 246.591 33.952 246.231 33.64C245.895 33.328 245.715 32.896 245.691 32.344L245.619 30.868C244.755 31.996 243.663 32.86 242.343 33.46C241.047 34.06 239.643 34.36 238.131 34.36ZM238.707 32.488C239.979 32.488 241.143 32.248 242.199 31.768C243.279 31.288 244.095 30.652 244.647 29.86C244.863 29.644 245.019 29.416 245.115 29.176C245.235 28.912 245.295 28.672 245.295 28.456V25.396C244.479 25.084 243.627 24.844 242.739 24.676C241.875 24.508 240.987 24.424 240.075 24.424C238.347 24.424 236.943 24.784 235.863 25.504C234.783 26.224 234.243 27.172 234.243 28.348C234.243 28.924 234.351 29.464 234.567 29.968C234.807 30.472 235.119 30.916 235.503 31.3C235.911 31.66 236.391 31.948 236.943 32.164C237.495 32.38 238.083 32.488 238.707 32.488ZM258.9 34.36C256.86 34.36 255.336 33.688 254.328 32.344C253.344 30.976 252.852 28.948 252.852 26.26V15.244H255.3V25.828C255.3 30.076 256.752 32.2 259.656 32.2C260.376 32.2 261.084 32.08 261.78 31.84C262.476 31.6 263.112 31.252 263.688 30.796C264.288 30.34 264.816 29.8 265.272 29.176C265.752 28.552 266.136 27.844 266.424 27.052V15.244H268.872V30.832C268.872 31.504 269.16 31.84 269.736 31.84V34C269.448 34.048 269.208 34.072 269.016 34.072C268.848 34.072 268.728 34.072 268.656 34.072C268.08 34.048 267.612 33.844 267.252 33.46C266.892 33.076 266.712 32.56 266.712 31.912V29.752C265.896 31.216 264.78 32.356 263.364 33.172C261.972 33.964 260.484 34.36 258.9 34.36ZM283.407 33.1C283.263 33.172 283.047 33.268 282.759 33.388C282.495 33.508 282.183 33.628 281.823 33.748C281.463 33.868 281.055 33.976 280.599 34.072C280.143 34.168 279.663 34.216 279.159 34.216C278.631 34.216 278.127 34.144 277.647 34C277.167 33.856 276.747 33.64 276.387 33.352C276.027 33.04 275.739 32.656 275.523 32.2C275.307 31.744 275.199 31.216 275.199 30.616V17.188H272.607V15.244H275.199V8.908H277.647V15.244H281.967V17.188H277.647V29.932C277.695 30.628 277.935 31.144 278.367 31.48C278.823 31.792 279.339 31.948 279.915 31.948C280.611 31.948 281.223 31.84 281.751 31.624C282.279 31.384 282.615 31.216 282.759 31.12L283.407 33.1ZM287.546 39.76C287.738 39.784 287.918 39.796 288.086 39.796C288.278 39.82 288.458 39.832 288.626 39.832C289.058 39.832 289.394 39.772 289.634 39.652C289.898 39.532 290.15 39.268 290.39 38.86C290.63 38.452 290.894 37.864 291.182 37.096C291.494 36.328 291.926 35.296 292.478 34L284.306 15.244H286.826L293.774 31.732L300.218 15.244H302.558L292.838 39.436C292.574 40.132 292.13 40.732 291.506 41.236C290.906 41.764 290.078 42.028 289.022 42.028C288.782 42.028 288.554 42.016 288.338 41.992C288.122 41.992 287.858 41.968 287.546 41.92V39.76ZM332.025 34L329.073 30.904C328.065 31.984 326.901 32.836 325.581 33.46C324.285 34.06 322.869 34.36 321.333 34.36C320.205 34.36 319.137 34.192 318.129 33.856C317.145 33.52 316.281 33.052 315.537 32.452C314.817 31.828 314.241 31.096 313.809 30.256C313.377 29.392 313.161 28.444 313.161 27.412C313.161 26.548 313.305 25.756 313.593 25.036C313.881 24.316 314.277 23.656 314.781 23.056C315.285 22.432 315.861 21.856 316.509 21.328C317.157 20.8 317.841 20.296 318.561 19.816C317.913 19.12 317.361 18.496 316.905 17.944C316.473 17.392 316.113 16.888 315.825 16.432C315.561 15.952 315.369 15.496 315.249 15.064C315.129 14.632 315.069 14.188 315.069 13.732C315.069 12.94 315.225 12.208 315.537 11.536C315.873 10.84 316.329 10.24 316.905 9.736C317.481 9.232 318.153 8.836 318.921 8.548C319.713 8.26 320.565 8.116 321.477 8.116C322.317 8.116 323.097 8.236 323.817 8.476C324.537 8.716 325.161 9.064 325.689 9.52C326.241 9.952 326.673 10.48 326.985 11.104C327.297 11.728 327.453 12.412 327.453 13.156C327.453 13.9 327.297 14.584 326.985 15.208C326.697 15.808 326.301 16.384 325.797 16.936C325.293 17.488 324.705 18.016 324.033 18.52C323.361 19.024 322.641 19.528 321.873 20.032L329.037 27.52C329.517 26.608 329.889 25.624 330.153 24.568C330.441 23.488 330.585 22.36 330.585 21.184H332.673C332.649 22.672 332.445 24.076 332.061 25.396C331.701 26.716 331.173 27.928 330.477 29.032L335.265 34H332.025ZM321.585 32.38C322.809 32.38 323.937 32.128 324.969 31.624C326.001 31.096 326.913 30.376 327.705 29.464L319.965 21.292C318.693 22.18 317.637 23.116 316.797 24.1C315.957 25.06 315.537 26.188 315.537 27.484C315.537 28.276 315.705 28.984 316.041 29.608C316.401 30.208 316.869 30.724 317.445 31.156C318.021 31.564 318.669 31.876 319.389 32.092C320.109 32.284 320.841 32.38 321.585 32.38ZM317.337 13.66C317.337 13.948 317.373 14.236 317.445 14.524C317.541 14.812 317.709 15.148 317.949 15.532C318.189 15.892 318.501 16.324 318.885 16.828C319.293 17.308 319.821 17.884 320.469 18.556C321.861 17.644 322.989 16.792 323.853 16C324.741 15.184 325.185 14.26 325.185 13.228C325.185 12.292 324.837 11.524 324.141 10.924C323.445 10.324 322.557 10.024 321.477 10.024C320.877 10.024 320.325 10.12 319.821 10.312C319.317 10.504 318.873 10.768 318.489 11.104C318.129 11.44 317.841 11.824 317.625 12.256C317.433 12.688 317.337 13.156 317.337 13.66ZM117.51 69.412C117.51 70.372 117.318 71.26 116.934 72.076C116.55 72.868 116.034 73.564 115.386 74.164C114.738 74.74 113.982 75.196 113.118 75.532C112.254 75.844 111.33 76 110.346 76H98.2862V50.44H110.598C111.486 50.44 112.29 50.632 113.01 51.016C113.73 51.4 114.342 51.904 114.846 52.528C115.35 53.128 115.734 53.824 115.998 54.616C116.286 55.384 116.43 56.164 116.43 56.956C116.43 58.252 116.106 59.44 115.458 60.52C114.81 61.576 113.91 62.368 112.758 62.896C114.222 63.328 115.374 64.132 116.214 65.308C117.078 66.484 117.51 67.852 117.51 69.412ZM114.99 68.98C114.99 68.356 114.882 67.756 114.666 67.18C114.45 66.58 114.138 66.064 113.73 65.632C113.346 65.176 112.878 64.816 112.326 64.552C111.798 64.264 111.222 64.12 110.598 64.12H100.806V73.804H110.346C110.994 73.804 111.594 73.672 112.146 73.408C112.722 73.144 113.214 72.796 113.622 72.364C114.054 71.908 114.39 71.392 114.63 70.816C114.87 70.216 114.99 69.604 114.99 68.98ZM100.806 52.636V62.068H109.59C110.214 62.068 110.79 61.936 111.318 61.672C111.87 61.408 112.338 61.06 112.722 60.628C113.106 60.196 113.406 59.704 113.622 59.152C113.838 58.576 113.946 57.976 113.946 57.352C113.946 56.704 113.838 56.092 113.622 55.516C113.43 54.94 113.142 54.448 112.758 54.04C112.398 53.608 111.966 53.272 111.462 53.032C110.958 52.768 110.406 52.636 109.806 52.636H100.806ZM126.475 76.36C125.587 76.36 124.759 76.216 123.991 75.928C123.247 75.616 122.587 75.196 122.011 74.668C121.459 74.14 121.027 73.528 120.715 72.832C120.403 72.112 120.247 71.344 120.247 70.528C120.247 69.712 120.439 68.956 120.823 68.26C121.207 67.564 121.747 66.964 122.443 66.46C123.139 65.956 123.967 65.572 124.927 65.308C125.887 65.02 126.943 64.876 128.095 64.876C129.055 64.876 130.027 64.96 131.011 65.128C131.995 65.296 132.871 65.536 133.639 65.848V64.156C133.639 62.5 133.171 61.192 132.235 60.232C131.299 59.248 130.003 58.756 128.347 58.756C127.387 58.756 126.403 58.948 125.395 59.332C124.387 59.716 123.367 60.268 122.335 60.988L121.471 59.368C123.895 57.736 126.247 56.92 128.527 56.92C130.879 56.92 132.727 57.58 134.071 58.9C135.415 60.22 136.087 62.044 136.087 64.372V72.832C136.087 73.504 136.387 73.84 136.987 73.84V76C136.579 76.072 136.267 76.108 136.051 76.108C135.427 76.108 134.935 75.952 134.575 75.64C134.239 75.328 134.059 74.896 134.035 74.344L133.963 72.868C133.099 73.996 132.007 74.86 130.687 75.46C129.391 76.06 127.987 76.36 126.475 76.36ZM127.051 74.488C128.323 74.488 129.487 74.248 130.543 73.768C131.623 73.288 132.439 72.652 132.991 71.86C133.207 71.644 133.363 71.416 133.459 71.176C133.579 70.912 133.639 70.672 133.639 70.456V67.396C132.823 67.084 131.971 66.844 131.083 66.676C130.219 66.508 129.331 66.424 128.419 66.424C126.691 66.424 125.287 66.784 124.207 67.504C123.127 68.224 122.587 69.172 122.587 70.348C122.587 70.924 122.695 71.464 122.911 71.968C123.151 72.472 123.463 72.916 123.847 73.3C124.255 73.66 124.735 73.948 125.287 74.164C125.839 74.38 126.427 74.488 127.051 74.488ZM150.736 59.404C149.08 59.452 147.64 59.908 146.416 60.772C145.192 61.636 144.328 62.824 143.824 64.336V76H141.376V57.244H143.68V61.744C144.376 60.304 145.312 59.176 146.488 58.36C147.664 57.544 148.924 57.136 150.268 57.136C150.46 57.136 150.616 57.148 150.736 57.172V59.404ZM163.177 76.36C161.689 76.36 160.321 75.988 159.073 75.244C157.849 74.5 156.889 73.54 156.193 72.364V76H153.997V49.72H156.445V61.168C157.285 59.896 158.293 58.876 159.469 58.108C160.645 57.316 162.013 56.92 163.573 56.92C164.893 56.92 166.069 57.196 167.101 57.748C168.157 58.3 169.045 59.044 169.765 59.98C170.509 60.892 171.073 61.936 171.457 63.112C171.865 64.264 172.069 65.452 172.069 66.676C172.069 67.996 171.841 69.244 171.385 70.42C170.929 71.596 170.305 72.628 169.513 73.516C168.721 74.38 167.773 75.076 166.669 75.604C165.589 76.108 164.425 76.36 163.177 76.36ZM162.601 74.2C163.633 74.2 164.569 73.996 165.409 73.588C166.273 73.156 167.005 72.592 167.605 71.896C168.229 71.176 168.709 70.372 169.045 69.484C169.405 68.572 169.585 67.636 169.585 66.676C169.585 65.692 169.417 64.744 169.081 63.832C168.769 62.92 168.313 62.116 167.713 61.42C167.137 60.7 166.429 60.136 165.589 59.728C164.773 59.296 163.873 59.08 162.889 59.08C162.145 59.08 161.449 59.212 160.801 59.476C160.153 59.716 159.553 60.052 159.001 60.484C158.449 60.916 157.957 61.42 157.525 61.996C157.093 62.548 156.733 63.136 156.445 63.76V69.592C156.541 70.24 156.793 70.852 157.201 71.428C157.633 71.98 158.137 72.46 158.713 72.868C159.313 73.276 159.949 73.6 160.621 73.84C161.317 74.08 161.977 74.2 162.601 74.2ZM184.316 76.36C182.948 76.36 181.688 76.108 180.536 75.604C179.408 75.076 178.424 74.368 177.584 73.48C176.744 72.568 176.084 71.524 175.604 70.348C175.148 69.172 174.92 67.912 174.92 66.568C174.92 65.248 175.148 64.012 175.604 62.86C176.084 61.684 176.732 60.664 177.548 59.8C178.388 58.912 179.384 58.216 180.536 57.712C181.688 57.184 182.936 56.92 184.28 56.92C185.648 56.92 186.896 57.184 188.024 57.712C189.176 58.216 190.16 58.912 190.976 59.8C191.792 60.688 192.428 61.708 192.884 62.86C193.34 64.012 193.568 65.236 193.568 66.532C193.568 66.724 193.568 66.916 193.568 67.108C193.568 67.3 193.556 67.432 193.532 67.504H177.476C177.548 68.512 177.776 69.448 178.16 70.312C178.568 71.152 179.084 71.884 179.708 72.508C180.332 73.132 181.04 73.624 181.832 73.984C182.648 74.32 183.512 74.488 184.424 74.488C185.024 74.488 185.624 74.404 186.224 74.236C186.824 74.068 187.376 73.84 187.88 73.552C188.384 73.264 188.84 72.916 189.248 72.508C189.656 72.076 189.968 71.608 190.184 71.104L192.308 71.68C192.02 72.376 191.612 73.012 191.084 73.588C190.556 74.14 189.944 74.632 189.248 75.064C188.552 75.472 187.784 75.784 186.944 76C186.104 76.24 185.228 76.36 184.316 76.36ZM191.228 65.632C191.156 64.624 190.916 63.712 190.508 62.896C190.124 62.056 189.62 61.336 188.996 60.736C188.396 60.136 187.688 59.668 186.872 59.332C186.08 58.996 185.228 58.828 184.316 58.828C183.404 58.828 182.54 58.996 181.724 59.332C180.908 59.668 180.188 60.136 179.564 60.736C178.964 61.336 178.472 62.056 178.088 62.896C177.728 63.736 177.512 64.648 177.44 65.632H191.228ZM206.705 59.404C205.049 59.452 203.609 59.908 202.385 60.772C201.161 61.636 200.297 62.824 199.793 64.336V76H197.345V57.244H199.649V61.744C200.345 60.304 201.281 59.176 202.457 58.36C203.633 57.544 204.893 57.136 206.237 57.136C206.429 57.136 206.585 57.148 206.705 57.172V59.404ZM217.075 63.04C217.075 61.504 217.339 59.98 217.867 58.468C218.419 56.932 219.211 55.564 220.243 54.364C221.275 53.164 222.547 52.192 224.059 51.448C225.571 50.68 227.287 50.296 229.207 50.296C231.487 50.296 233.431 50.812 235.039 51.844C236.671 52.876 237.871 54.22 238.639 55.876L236.659 57.1C236.251 56.26 235.747 55.552 235.147 54.976C234.571 54.4 233.947 53.932 233.275 53.572C232.603 53.212 231.907 52.96 231.187 52.816C230.467 52.648 229.759 52.564 229.063 52.564C227.527 52.564 226.171 52.876 224.995 53.5C223.819 54.124 222.823 54.94 222.007 55.948C221.215 56.956 220.615 58.096 220.207 59.368C219.799 60.616 219.595 61.888 219.595 63.184C219.595 64.6 219.835 65.956 220.315 67.252C220.819 68.548 221.491 69.7 222.331 70.708C223.195 71.692 224.203 72.484 225.355 73.084C226.531 73.66 227.803 73.948 229.171 73.948C229.891 73.948 230.623 73.864 231.367 73.696C232.135 73.504 232.867 73.216 233.563 72.832C234.283 72.424 234.943 71.932 235.543 71.356C236.143 70.756 236.647 70.036 237.055 69.196L239.143 70.276C238.735 71.236 238.159 72.088 237.415 72.832C236.671 73.552 235.843 74.164 234.931 74.668C234.019 75.172 233.047 75.556 232.015 75.82C231.007 76.084 230.011 76.216 229.027 76.216C227.275 76.216 225.667 75.832 224.203 75.064C222.739 74.296 221.479 73.3 220.423 72.076C219.367 70.828 218.539 69.424 217.939 67.864C217.363 66.28 217.075 64.672 217.075 63.04ZM250.934 76.36C249.566 76.36 248.318 76.108 247.19 75.604C246.062 75.076 245.078 74.368 244.238 73.48C243.422 72.592 242.786 71.56 242.33 70.384C241.874 69.208 241.646 67.972 241.646 66.676C241.646 65.356 241.874 64.108 242.33 62.932C242.81 61.756 243.458 60.724 244.274 59.836C245.114 58.948 246.098 58.24 247.226 57.712C248.354 57.184 249.59 56.92 250.934 56.92C252.278 56.92 253.514 57.184 254.642 57.712C255.794 58.24 256.778 58.948 257.594 59.836C258.434 60.724 259.082 61.756 259.538 62.932C260.018 64.108 260.258 65.356 260.258 66.676C260.258 67.972 260.03 69.208 259.574 70.384C259.118 71.56 258.47 72.592 257.63 73.48C256.814 74.368 255.83 75.076 254.678 75.604C253.55 76.108 252.302 76.36 250.934 76.36ZM244.13 66.712C244.13 67.768 244.31 68.752 244.67 69.664C245.03 70.552 245.51 71.344 246.11 72.04C246.734 72.712 247.454 73.24 248.27 73.624C249.11 74.008 249.998 74.2 250.934 74.2C251.87 74.2 252.746 74.008 253.562 73.624C254.402 73.216 255.134 72.676 255.758 72.004C256.382 71.308 256.874 70.504 257.234 69.592C257.594 68.68 257.774 67.696 257.774 66.64C257.774 65.608 257.594 64.636 257.234 63.724C256.874 62.788 256.382 61.984 255.758 61.312C255.134 60.616 254.402 60.076 253.562 59.692C252.746 59.284 251.87 59.08 250.934 59.08C249.998 59.08 249.122 59.284 248.306 59.692C247.49 60.076 246.77 60.616 246.146 61.312C245.522 62.008 245.03 62.824 244.67 63.76C244.31 64.672 244.13 65.656 244.13 66.712ZM264.46 49.72H266.908V71.752C266.908 72.448 267.1 73 267.484 73.408C267.868 73.792 268.408 73.984 269.104 73.984C269.368 73.984 269.68 73.948 270.04 73.876C270.4 73.804 270.736 73.708 271.048 73.588L271.48 75.568C271.024 75.76 270.46 75.916 269.788 76.036C269.14 76.156 268.576 76.216 268.096 76.216C266.968 76.216 266.08 75.904 265.432 75.28C264.784 74.632 264.46 73.732 264.46 72.58V49.72ZM274.269 49.72H276.717V71.752C276.717 72.448 276.909 73 277.293 73.408C277.677 73.792 278.217 73.984 278.913 73.984C279.177 73.984 279.489 73.948 279.849 73.876C280.209 73.804 280.545 73.708 280.857 73.588L281.289 75.568C280.833 75.76 280.269 75.916 279.597 76.036C278.949 76.156 278.385 76.216 277.905 76.216C276.777 76.216 275.889 75.904 275.241 75.28C274.593 74.632 274.269 73.732 274.269 72.58V49.72ZM292.07 76.36C290.702 76.36 289.442 76.108 288.29 75.604C287.162 75.076 286.178 74.368 285.338 73.48C284.498 72.568 283.838 71.524 283.358 70.348C282.902 69.172 282.674 67.912 282.674 66.568C282.674 65.248 282.902 64.012 283.358 62.86C283.838 61.684 284.486 60.664 285.302 59.8C286.142 58.912 287.138 58.216 288.29 57.712C289.442 57.184 290.69 56.92 292.034 56.92C293.402 56.92 294.65 57.184 295.778 57.712C296.93 58.216 297.914 58.912 298.73 59.8C299.546 60.688 300.182 61.708 300.638 62.86C301.094 64.012 301.322 65.236 301.322 66.532C301.322 66.724 301.322 66.916 301.322 67.108C301.322 67.3 301.31 67.432 301.286 67.504H285.23C285.302 68.512 285.53 69.448 285.914 70.312C286.322 71.152 286.838 71.884 287.462 72.508C288.086 73.132 288.794 73.624 289.586 73.984C290.402 74.32 291.266 74.488 292.178 74.488C292.778 74.488 293.378 74.404 293.978 74.236C294.578 74.068 295.13 73.84 295.634 73.552C296.138 73.264 296.594 72.916 297.002 72.508C297.41 72.076 297.722 71.608 297.938 71.104L300.062 71.68C299.774 72.376 299.366 73.012 298.838 73.588C298.31 74.14 297.698 74.632 297.002 75.064C296.306 75.472 295.538 75.784 294.698 76C293.858 76.24 292.982 76.36 292.07 76.36ZM298.982 65.632C298.91 64.624 298.67 63.712 298.262 62.896C297.878 62.056 297.374 61.336 296.75 60.736C296.15 60.136 295.442 59.668 294.626 59.332C293.834 58.996 292.982 58.828 292.07 58.828C291.158 58.828 290.294 58.996 289.478 59.332C288.662 59.668 287.942 60.136 287.318 60.736C286.718 61.336 286.226 62.056 285.842 62.896C285.482 63.736 285.266 64.648 285.194 65.632H298.982ZM312.623 76.252C311.327 76.252 310.139 75.988 309.059 75.46C308.003 74.908 307.079 74.188 306.287 73.3C305.519 72.412 304.919 71.392 304.487 70.24C304.055 69.088 303.839 67.9 303.839 66.676C303.839 65.38 304.043 64.144 304.451 62.968C304.883 61.768 305.483 60.724 306.251 59.836C307.019 58.948 307.931 58.24 308.987 57.712C310.067 57.184 311.255 56.92 312.551 56.92C314.159 56.92 315.551 57.328 316.727 58.144C317.903 58.936 318.911 59.944 319.751 61.168V57.244H321.947V76.072C321.947 77.368 321.695 78.508 321.191 79.492C320.711 80.5 320.051 81.34 319.211 82.012C318.395 82.684 317.423 83.188 316.295 83.524C315.191 83.86 314.015 84.028 312.767 84.028C310.607 84.028 308.867 83.644 307.547 82.876C306.227 82.108 305.159 81.076 304.343 79.78L305.855 78.592C306.599 79.792 307.583 80.668 308.807 81.22C310.031 81.796 311.351 82.084 312.767 82.084C313.679 82.084 314.543 81.952 315.359 81.688C316.175 81.448 316.883 81.076 317.483 80.572C318.107 80.092 318.599 79.468 318.959 78.7C319.319 77.956 319.499 77.08 319.499 76.072V72.364C318.779 73.564 317.795 74.512 316.547 75.208C315.299 75.904 313.991 76.252 312.623 76.252ZM313.307 74.2C314.027 74.2 314.735 74.068 315.431 73.804C316.127 73.54 316.751 73.192 317.303 72.76C317.879 72.304 318.359 71.8 318.743 71.248C319.127 70.696 319.379 70.132 319.499 69.556V63.76C319.235 63.088 318.875 62.464 318.419 61.888C317.963 61.312 317.447 60.82 316.871 60.412C316.295 60.004 315.671 59.68 314.999 59.44C314.351 59.2 313.691 59.08 313.019 59.08C311.963 59.08 311.015 59.308 310.175 59.764C309.359 60.196 308.663 60.772 308.087 61.492C307.511 62.212 307.067 63.028 306.755 63.94C306.467 64.852 306.323 65.776 306.323 66.712C306.323 67.72 306.503 68.68 306.863 69.592C307.223 70.504 307.715 71.308 308.339 72.004C308.987 72.676 309.731 73.216 310.571 73.624C311.411 74.008 312.323 74.2 313.307 74.2ZM335.452 76.36C334.084 76.36 332.824 76.108 331.672 75.604C330.544 75.076 329.56 74.368 328.72 73.48C327.88 72.568 327.22 71.524 326.74 70.348C326.284 69.172 326.056 67.912 326.056 66.568C326.056 65.248 326.284 64.012 326.74 62.86C327.22 61.684 327.868 60.664 328.684 59.8C329.524 58.912 330.52 58.216 331.672 57.712C332.824 57.184 334.072 56.92 335.416 56.92C336.784 56.92 338.032 57.184 339.16 57.712C340.312 58.216 341.296 58.912 342.112 59.8C342.928 60.688 343.564 61.708 344.02 62.86C344.476 64.012 344.704 65.236 344.704 66.532C344.704 66.724 344.704 66.916 344.704 67.108C344.704 67.3 344.692 67.432 344.668 67.504H328.612C328.684 68.512 328.912 69.448 329.296 70.312C329.704 71.152 330.22 71.884 330.844 72.508C331.468 73.132 332.176 73.624 332.968 73.984C333.784 74.32 334.648 74.488 335.56 74.488C336.16 74.488 336.76 74.404 337.36 74.236C337.96 74.068 338.512 73.84 339.016 73.552C339.52 73.264 339.976 72.916 340.384 72.508C340.792 72.076 341.104 71.608 341.32 71.104L343.444 71.68C343.156 72.376 342.748 73.012 342.22 73.588C341.692 74.14 341.08 74.632 340.384 75.064C339.688 75.472 338.92 75.784 338.08 76C337.24 76.24 336.364 76.36 335.452 76.36ZM342.364 65.632C342.292 64.624 342.052 63.712 341.644 62.896C341.26 62.056 340.756 61.336 340.132 60.736C339.532 60.136 338.824 59.668 338.008 59.332C337.216 58.996 336.364 58.828 335.452 58.828C334.54 58.828 333.676 58.996 332.86 59.332C332.044 59.668 331.324 60.136 330.7 60.736C330.1 61.336 329.608 62.056 329.224 62.896C328.864 63.736 328.648 64.648 328.576 65.632H342.364Z" fill="black"/>
<rect width="72.6624" height="5.00029" transform="matrix(-0.574377 -0.818591 0.819712 -0.572775 60.6462 69.6028)" fill="black"/>
<path d="M6.57303 20.1066L20.0983 10.6558" stroke="black" stroke-width="2"/>
<path d="M8.87082 23.3248L22.3961 13.874" stroke="black"/>
<path d="M14.0075 30.6456L27.5328 21.1948" stroke="black"/>
<path d="M15.2919 32.4758L28.8172 23.025" stroke="black"/>
<path d="M12.7234 28.8154L26.2487 19.3646" stroke="black"/>
<path d="M11.4393 26.9852L24.9646 17.5344" stroke="black"/>
<path d="M10.1552 25.1551L23.6805 15.7043" stroke="black"/>
<path d="M16.576 34.3059L30.1013 24.8551" stroke="black"/>
<path d="M21.7127 41.6266L35.238 32.1758" stroke="black"/>
<path d="M22.9968 43.4568L36.5221 34.006" stroke="black"/>
<path d="M20.4285 39.7964L33.9538 30.3456" stroke="black"/>
<path d="M19.1442 37.9663L32.6695 28.5155" stroke="black"/>
<path d="M17.8601 36.1361L31.3854 26.6853" stroke="black"/>
<path d="M24.2809 45.287L37.8062 35.8362" stroke="black"/>
<path d="M29.4177 52.6077L42.9429 43.1569" stroke="black"/>
<path d="M30.7019 54.4379L44.2272 44.9871" stroke="black"/>
<path d="M28.1335 50.7775L41.6588 41.3267" stroke="black"/>
<path d="M26.8494 48.9474L40.3747 39.4966" stroke="black"/>
<path d="M25.5652 47.1171L39.0905 37.6663" stroke="black"/>
<path d="M31.9861 56.2681L45.5114 46.8173" stroke="black"/>
<path d="M37.1229 63.5888L50.6481 54.138" stroke="black"/>
<path d="M38.407 65.4189L51.9322 55.9681" stroke="black"/>
<path d="M35.8385 61.7585L49.3637 52.3077" stroke="black"/>
<path d="M34.5544 59.9284L48.0796 50.4776" stroke="black"/>
<path d="M33.2703 58.0982L46.7955 48.6474" stroke="black"/>
<path d="M39.6911 67.2491L53.2163 57.7983" stroke="black"/>
<path d="M44.8278 74.5699L58.3531 65.1191" stroke="black"/>
<path d="M43.5437 72.7397L57.0689 63.2889" stroke="black"/>
<path d="M42.2596 70.9095L55.7848 61.4587" stroke="black"/>
<path d="M40.9752 69.0793L54.5005 59.6285" stroke="black"/>
<path d="M47.0244 77.7572L60.5497 68.3064" stroke="black" stroke-width="2"/>
<path d="M27.1368 69.8301C25.448 74.1694 27.1735 78.2911 30.2975 79.3933C33.4214 80.4955 37.5511 78.4397 39.2399 74.1004C40.9287 69.7611 39.2032 65.6394 36.0793 64.5372C32.9553 63.435 28.8256 65.4908 27.1368 69.8301Z" stroke="black" stroke-width="3"/>
<path d="M32.3 43.2658L39.368 45.7596L47.244 4.86768L32.3 43.2658Z" fill="black"/>
<path d="M39.368 45.7596C33.3336 64.5925 38.4696 61.4552 39.2629 66.6845L33.915 64.3609L28.1013 66.6767L25.7277 69.333L29.9121 58.5815L35.4414 44.3742L39.368 45.7596Z" fill="black"/>
<path d="M17.6568 64.339C14.897 68.1495 10.3739 69.1233 7.65293 67.3032C4.93191 65.4831 4.31129 61.0688 7.07113 57.2582C9.83097 53.4477 14.354 52.4739 17.075 54.294C19.796 56.1141 20.4166 60.5284 17.6568 64.339Z" stroke="black" stroke-width="3"/>
<path d="M37.4618 45.1724L31.273 41.0327L61.7921 11.5791L37.4618 45.1724Z" fill="black"/>
<ellipse rx="1.66398" ry="1.64965" transform="matrix(0.826504 0.552846 -0.58995 0.814555 37.9916 38.9767)" fill="white"/>
<path d="M31.273 41.0328C18.5974 56.4906 18.3407 50.6672 13.4057 53.0179L18.4625 55.9017L19.8115 61.7908L18.8965 65.1682L25.709 55.7621L34.7112 43.3326L31.273 41.0328Z" fill="black"/>
</svg>
